<svg xmlns="http://www.w3.org/2000/svg" viewBox="0 0 260 260"><defs><style>.cls-1{fill:#237aba;fill-rule:evenodd;}</style></defs><title>2</title><g id="icons"><polygon class="cls-1" points="110.77 151 140.77 151 150.77 141 110.77 141 110.77 151"/><path class="cls-1" d="M130.77,81a19.94,19.94,0,0,0-20,20v10h40V101A19.94,19.94,0,0,0,130.77,81Z"/><path class="cls-1" d="M240.75,31a10,10,0,0,0-10-10H30.82a9.94,9.94,0,0,0-10,10l0,70c0,140,110,150,110,150s110-10,110-150Zm-70,140a10,10,0,0,1-10,10H100.74a9.93,9.93,0,0,1-10-10V121a10,10,0,0,1,10-10h0V101a30,30,0,1,1,60,0v10h0a9.93,9.93,0,0,1,10,10Z"/></g></svg>