<svg xmlns="http://www.w3.org/2000/svg" viewBox="0 0 260 260"><defs><style>.cls-1{fill:#237aba;fill-rule:evenodd}</style></defs><title>2</title><g id="icons"><path class="cls-1" d="M129.58 109.57L138.51 96c2.26-3.4 2.74-5.53 2.74-7.91a12.52 12.52 0 0 0-12.38-12.23h-13.73v80h7.61c12.73 0 22.39-7 22.39-23.34 0-13.46-6.24-20.66-15.56-22.95z"/><path class="cls-1" d="M130.14 9.89a100 100 0 0 0-100 100v3c2 88.3 91.6 144.71 91.6 144.71 4.56 3.09 12 3.1 16.54.12 0 0 89.79-56.52 91.77-144.83v-3a100 100 0 0 0-99.91-100zm9 156h-44v-100h45.58c21.36 0 28.81 16.63 18 32l-5.11 7.25c35.82 17.74 24.17 60.75-14.5 60.75z"/></g></svg>