<svg xmlns="http://www.w3.org/2000/svg" viewBox="0 0 260 260"><defs><style>.cls-1{fill:#237aba}</style></defs><title>4</title><path class="cls-1" d="M238 208.85l-50.8-42.62a6.7 6.7 0 0 0-8.86.37l-7.41 7.4-1.47 1.47-15.28 15.28a143.22 143.22 0 0 1-51.76-33.14 141.33 141.33 0 0 1-33.14-51.77l15.27-15.27L86 89.1l7.41-7.41a6.8 6.8 0 0 0 .29-8.94L51.15 22a5.38 5.38 0 0 0-8.08-.33L24 40.77a6.18 6.18 0 0 0-1.13 1.13l-2.28 2.28-.06-.05h-.17a184.73 184.73 0 0 0 195.52 195.54l-.07-.21 2.28-2.28 1.13-1.13L238.35 217a5.43 5.43 0 0 0-.35-8.15z" id="icons"/></svg>