<svg id="Layer_1" data-name="Layer 1" xmlns="http://www.w3.org/2000/svg" viewBox="0 0 54 54"><defs><style>.cls-1{fill:#1973b8;fill-rule:evenodd;}</style></defs><title>Twitter</title><path id="path-1" class="cls-1" d="M10,27A17,17,0,1,1,27,44,17,17,0,0,1,10,27Zm25.46-4a8.9,8.9,0,0,0,2.19-2.09,9.53,9.53,0,0,1-2.51.63,4.08,4.08,0,0,0,1.91-2.24,8.62,8.62,0,0,1-2.77,1A4.52,4.52,0,0,0,31.09,19,4.23,4.23,0,0,0,26.71,23a4.73,4.73,0,0,0,.09.93,12.79,12.79,0,0,1-9-4.24,3.91,3.91,0,0,0-.67,2.05,3.85,3.85,0,0,0,1.81,3.37c-.72,0-2.25-.21-2.25-.51v.05c0,2,1.78,3.6,3.78,4a2.84,2.84,0,0,1-.88.14,5.55,5.55,0,0,1-.82-.06,4.35,4.35,0,0,0,4.08,2.81,9.19,9.19,0,0,1-5.42,1.73c-.36,0-.7,0-1,0A13.07,13.07,0,0,0,23.05,35c8,0,12.43-6.17,12.43-11.53A4.78,4.78,0,0,0,35.46,23Z"/></svg>