<svg id="Layer_1" data-name="Layer 1" xmlns="http://www.w3.org/2000/svg" viewBox="0 0 54 54"><defs><style>.cls-1{fill:#1973b8;fill-rule:evenodd;}</style></defs><title>WahtsApp</title><path id="path-1" class="cls-1" d="M38.94,15.1h0A16.85,16.85,0,0,1,27.14,44a16.62,16.62,0,0,1-8.3-2.19l-6.74.12.16-6.65A16.86,16.86,0,0,1,38.94,15.1Zm-3.66,16A23.43,23.43,0,0,0,32.83,30c-.56-.24-1.15-.66-1.6-.55s-.65.59-.87.86c-.65.79-1,1.63-2.06,1.19a11.77,11.77,0,0,1-4.77-3.6c-.53-.68-1.43-1.54-.9-2.34.4-.62,1.3-1.18,1.2-2a12.29,12.29,0,0,0-1.15-2.83c-.43-1-.55-1.47-1.65-1.47a3.79,3.79,0,0,0-1.26.22,3.87,3.87,0,0,0-.92.93,4.87,4.87,0,0,0-1,2.95v.12c.05,2.21,1.45,4.14,2.76,5.82a16.56,16.56,0,0,0,10.15,6.41C32.58,36,35,35,35.54,33.05c.2-.67.41-1.49-.26-1.91Z"/></svg>